<svg viewBox="0 0 22 22" fill="none" xmlns="http://www.w3.org/2000/svg"><path d="M7.12051 10.8769C6.50342 9.33764 6.4367 7.63258 6.93163 6.04986C7.42657 4.46714 8.4528 3.10385 9.83685 2.19042C11.2209 1.277 12.8779 0.869466 14.5277 1.03671C16.1776 1.20396 17.7191 1.93573 18.8917 3.10833C20.0643 4.28092 20.796 5.82243 20.9633 7.47227C21.1305 9.12212 20.723 10.7791 19.8096 12.1632C18.8961 13.5472 17.5328 14.5734 15.9501 15.0684C14.3674 15.5633 12.6623 15.4966 11.1231 14.8795L11.1232 14.8793L9.80559 16.1969H7.40406V18.5985H5.00254V21H1V16.9975L7.12068 10.8768L7.12051 10.8769Z" stroke="currentColor" stroke-linecap="round" stroke-linejoin="round"/><path d="M14.6951 9.52725C15.7562 9.52725 16.6164 8.66709 16.6164 7.60603C16.6164 6.54497 15.7562 5.68481 14.6951 5.68481C13.6341 5.68481 12.7739 6.54497 12.7739 7.60603C12.7739 8.66709 13.6341 9.52725 14.6951 9.52725Z" fill="currentColor"/></svg>