<svg viewBox="0 0 16 16" fill="none" xmlns="http://www.w3.org/2000/svg"><path d="M15 9.78082C13.783 10.119 12.4981 10.1279 11.2766 9.80663C10.0551 9.48536 8.94079 8.84546 8.04767 7.95234C7.15455 7.05922 6.51464 5.94493 6.19337 4.72341C5.8721 3.50189 5.881 2.21695 6.21916 1C5.01885 1.33391 3.92718 1.97656 3.05253 2.86382C2.17787 3.75107 1.55096 4.85201 1.23424 6.05697C0.917524 7.26193 0.922055 8.52885 1.24738 9.73151C1.57271 10.9342 2.20749 12.0306 3.08847 12.9116C3.96944 13.7926 5.06588 14.4273 6.26854 14.7526C7.47121 15.078 8.73812 15.0825 9.94308 14.7657C11.148 14.449 12.249 13.8221 13.1362 12.9474C14.0234 12.0728 14.6661 10.9811 15 9.78082Z" stroke="currentColor" stroke-linecap="round" stroke-linejoin="round"/></svg>