<svg viewBox="0 0 24 22" fill="none" xmlns="http://www.w3.org/2000/svg"><path d="M20.6429 21.3505V10.2618C20.6429 10.1388 20.62 10.0171 20.5757 9.90459C20.5314 9.79207 20.4667 9.6912 20.3857 9.60844L12.528 1.58011C12.3834 1.43234 12.1949 1.35046 11.9994 1.35046C11.804 1.35047 11.6155 1.43237 11.4709 1.58015L3.61428 9.60844C3.53329 9.6912 3.46858 9.79207 3.4243 9.90458C3.38002 10.0171 3.35714 10.1388 3.35714 10.2618V21.3505M1 21.3505H23M14.3566 21.3495V15.1684C14.3566 14.9342 14.2738 14.7096 14.1264 14.544C13.9791 14.3784 13.7792 14.2854 13.5709 14.2854H10.428C10.2196 14.2854 10.0198 14.3784 9.87241 14.544C9.72506 14.7096 9.64228 14.9342 9.64228 15.1684V21.3495" stroke="currentColor" stroke-linecap="round" stroke-linejoin="round"/></svg>