<svg viewBox="0 0 26 26" fill="none" xmlns="http://www.w3.org/2000/svg"><path d="M11.25 12C11.25 11.4477 11.4477 11 12 11H13C13.5523 11 13.5 11.4477 13.5 12V15V18C14.0523 18 15 18.4477 15 19C15 19.5523 14.5523 20 14 20H13C12.4477 20 12.5 19.5523 12.5 19V13C11.9477 13 11.25 12.5523 11.25 12Z" fill="currentColor"/><path d="M14 7.5C14 8.32843 13.8284 8.5 13 8.5C12.1716 8.5 11.5 8.32843 11.5 7.5C11.5 6.67157 11.6716 6.5 12.5 6.5C13.3284 6.5 14 6.67157 14 7.5Z" fill="currentColor"/><path fill-rule="evenodd" clip-rule="evenodd" d="M0 13C0 5.8203 5.8203 0 13 0C20.1797 0 26 5.8203 26 13C26 20.1797 20.1797 26 13 26C5.8203 26 0 20.1797 0 13ZM13 1C6.92487 1 1 6.92487 1 13C1 19.0751 6.92487 25 13 25C19.0751 25 25 19.0751 25 13C25 6.92487 19.0751 1 13 1Z" fill="currentColor"/></svg>