<svg viewBox="0 0 31 10" fill="none" xmlns="http://www.w3.org/2000/svg"><path d="M13.6043 0.0162172C13.6043 0.0243272 13.2036 1.06646 12.7138 2.33567C12.131 3.85224 11.8031 4.65108 11.7545 4.67541C11.5886 4.76867 11.3457 5.05658 11.2971 5.22283C11.2688 5.3161 11.2526 5.40125 11.2648 5.41342C11.2769 5.42558 11.3781 5.37287 11.4914 5.29582C11.9205 5.00792 12.9203 4.69568 14.515 4.35506C16.2191 3.99011 17.4537 3.63733 18.0689 3.34942C18.583 3.10612 18.8663 2.75739 18.8663 2.36406C18.8663 2.14103 18.8137 2.1167 18.7044 2.29107C18.6073 2.44921 18.3522 2.66818 18.1499 2.77361C18.0284 2.83444 18.0163 2.83444 17.9839 2.76956C17.9637 2.72901 17.7168 2.08832 17.4294 1.34626L16.9113 -2.75473e-06H16.1867C15.5148 -2.75473e-06 15.4622 0.00405224 15.4824 0.0689322C15.5593 0.324397 16.3163 3.41836 16.3041 3.43052C16.2636 3.47513 14.1305 3.94956 14.1062 3.92118C14.09 3.90901 14.9522 0.381167 15.0453 0.0689322C15.0655 0.00405224 15.0129 -2.75473e-06 14.3369 -2.75473e-06C13.9322 -2.75473e-06 13.6043 0.00810723 13.6043 0.0162172Z" fill="currentColor"/><path d="M0.0161907 3.25218C0.0283338 6.28532 0.0323814 6.44347 0.113335 6.81247C0.283338 7.57481 0.562628 8.18306 0.955253 8.62911C1.71217 9.48066 3.02767 9.91049 4.67912 9.84155C6.74344 9.75234 7.97798 8.94134 8.47989 7.34773C8.7187 6.58539 8.7187 6.61378 8.73489 3.21163L8.75109 0.0811782H7.53678H6.32248L6.31033 2.96834C6.29414 5.81089 6.29414 5.8636 6.20509 6.18395C5.91771 7.22203 5.31056 7.74512 4.38769 7.74512C3.82101 7.74512 3.40005 7.57887 3.06814 7.21797C2.69576 6.82058 2.50956 6.30965 2.43266 5.47838C2.41242 5.24319 2.39218 3.92937 2.39218 2.56284V0.0811782H1.19407H0L0.0161907 3.25218Z" fill="currentColor"/><path d="M22.0639 4.88621V9.69138H24.9499C26.6216 9.69138 27.9857 9.67516 28.1962 9.65083C29.6371 9.48863 30.4669 8.90876 30.7057 7.89907C30.7745 7.59494 30.7867 6.94614 30.7219 6.64202C30.5641 5.87968 30.0217 5.34442 29.0988 5.03219L28.7709 4.9227L29.03 4.82944C29.8517 4.53748 30.39 3.97789 30.5843 3.22366C30.6612 2.91548 30.6612 2.27479 30.5843 1.96661C30.3414 1.01774 29.5926 0.437877 28.265 0.174302C27.9574 0.113477 27.5566 0.105367 24.9904 0.093202L22.0639 0.076982V4.88621ZM27.5364 2.20991C27.8076 2.29506 28.0828 2.50998 28.1597 2.70462C28.1921 2.77761 28.2164 2.94386 28.2164 3.07362C28.2164 3.51156 27.9371 3.85624 27.4554 4.00222C27.2531 4.0671 27.0466 4.07521 25.8485 4.07521H24.4723L24.4602 3.08984L24.4521 2.10448L25.8768 2.11664C27.1154 2.13286 27.3381 2.14503 27.5364 2.20991ZM27.674 5.89185C28.1233 6.03783 28.3378 6.30951 28.3378 6.71906C28.3378 7.00291 28.265 7.16917 28.0626 7.34353C27.7347 7.62333 27.6093 7.6436 25.9416 7.65577L24.4521 7.66793V6.73123V5.79047L25.9619 5.80669C27.2247 5.82291 27.5 5.83508 27.674 5.89185Z" fill="currentColor"/><path d="M19.186 2.92767C19.097 3.14664 18.7124 3.49537 18.3603 3.67785C17.7531 3.99008 16.9962 4.2131 15.0007 4.66321C12.8473 5.14981 12.4061 5.2674 11.799 5.51476C11.2364 5.74589 10.8923 6.00947 10.7263 6.33792C10.6494 6.48796 10.609 6.82452 10.6575 6.87724C10.6697 6.8894 10.7344 6.84885 10.7952 6.78803C11.293 6.32576 12.0054 6.05813 13.9443 5.5918C16.98 4.8619 17.8179 4.63077 18.3724 4.37125C19.0322 4.05901 19.4127 3.50754 19.3358 2.98039C19.3034 2.76547 19.2589 2.74925 19.186 2.92767Z" fill="currentColor"/><path d="M19.6555 3.77116C19.5664 4.0469 19.024 4.52133 18.5585 4.72814C17.923 5.01198 16.6683 5.36477 14.1628 5.9568C12.2361 6.41501 11.5803 6.64615 10.9408 7.09625C10.4348 7.45309 10.1232 7.9478 10.1232 8.40196V8.60876L10.3782 8.34519C10.8679 7.83832 11.4791 7.50581 12.5113 7.19763C12.7015 7.14086 13.4585 6.93811 14.1911 6.74752C17.0568 6.00546 18.3764 5.60807 18.9228 5.32016C19.4571 5.04037 19.7607 4.63487 19.789 4.14827C19.8093 3.87659 19.7769 3.69006 19.7162 3.69006C19.6959 3.69006 19.6716 3.72655 19.6555 3.77116Z" fill="currentColor"/><path d="M18.8258 5.79864C18.7044 5.86352 18.2632 6.02977 17.8463 6.16359C17.4253 6.30146 17.0853 6.43527 17.0853 6.4596C17.0893 6.60153 17.8544 9.54546 17.8948 9.56979C17.9191 9.58601 18.0891 9.61034 18.2713 9.62656C18.6679 9.659 19.8256 9.8293 20.3639 9.93473C20.5744 9.97528 20.7525 10.0037 20.7565 9.99961C20.7606 9.99556 20.5501 9.43597 20.287 8.75879C20.0239 8.07755 19.6515 7.1084 19.4532 6.59747C19.2589 6.0906 19.0889 5.67699 19.0727 5.68104C19.0606 5.68104 18.9472 5.73781 18.8258 5.79864Z" fill="currentColor"/><path d="M12.649 7.58689C11.5399 7.91129 10.9368 8.21947 10.443 8.71418C10.1556 9.00614 10.1273 9.04669 9.94918 9.50491C9.84799 9.77254 9.76703 9.99556 9.77108 9.99961C9.77513 10.0037 9.95323 9.97528 10.1637 9.93473C10.702 9.8293 11.8597 9.659 12.2564 9.62656C12.4385 9.61034 12.6085 9.58601 12.6328 9.56979C12.6733 9.54546 13.2197 7.46524 13.1914 7.44091C13.1833 7.4328 12.9404 7.49768 12.649 7.58689Z" fill="currentColor"/></svg>