<svg viewBox="0 0 32 32" fill="none" xmlns="http://www.w3.org/2000/svg"><g><path d="M22.0209 12.4646H28.0209V6.4646" stroke="currentColor" stroke-width="2" stroke-linecap="round" stroke-linejoin="round"/><path d="M8.22192 8.22183C9.24337 7.20038 10.456 6.39013 11.7906 5.83733C13.1252 5.28452 14.5556 5 16.0001 5C17.4446 5 18.875 5.28452 20.2096 5.83733C21.5442 6.39013 22.7568 7.20038 23.7783 8.22183L28.0209 12.4645" stroke="currentColor" stroke-width="2" stroke-linecap="round" stroke-linejoin="round"/><path d="M9.979 19.5354H3.979V25.5354" stroke="currentColor" stroke-width="2" stroke-linecap="round" stroke-linejoin="round"/><path d="M23.7782 23.7783C22.7568 24.7997 21.5442 25.61 20.2096 26.1628C18.875 26.7156 17.4446 27.0001 16.0001 27.0001C14.5555 27.0001 13.1251 26.7156 11.7905 26.1628C10.456 25.61 9.24333 24.7997 8.22189 23.7783L3.97925 19.5356" stroke="currentColor" stroke-width="2" stroke-linecap="round" stroke-linejoin="round"/></g></svg>