<svg viewBox="0 0 24 22" fill="none" xmlns="http://www.w3.org/2000/svg"><path d="M1 21V2.05263C1 1.77346 1.0905 1.50572 1.25158 1.30831C1.41267 1.1109 1.63114 1 1.85895 1H7.58531C7.77116 1 7.952 1.07387 8.10068 1.21053L11.0784 3.94737C11.2271 4.08402 11.4079 4.15789 11.5938 4.15789H19.038C19.2658 4.15789 19.4843 4.2688 19.6454 4.4662C19.8065 4.66361 19.897 4.93135 19.897 5.21053V8.36842M1 21L4.24004 9.08818C4.29705 8.87859 4.40642 8.69629 4.55267 8.56711C4.69892 8.43793 4.87463 8.36842 5.05491 8.36842H22.141C22.2771 8.36842 22.4113 8.40806 22.5325 8.48406C22.6536 8.56006 22.7583 8.67026 22.8379 8.80557C22.9174 8.94088 22.9697 9.09742 22.9902 9.26231C23.0107 9.42719 22.999 9.59569 22.9559 9.75392L19.897 21H1Z" stroke="currentColor" stroke-linecap="round" stroke-linejoin="round"/></svg>