<?xml version="1.0" encoding="utf-8"?><svg xmlns="http://www.w3.org/2000/svg" xmlns:xlink="http://www.w3.org/1999/xlink"><symbol viewBox="0 0 22 15" fill="none" id="icon-hamburguesa" xmlns="http://www.w3.org/2000/svg"><path d="M1 7h20M1 1.5h20m-20 12h20" stroke="currentColor" stroke-width="2" stroke-linecap="round" stroke-linejoin="round"/></symbol><symbol viewBox="0 0 31 10" fill="none" id="icon-uab" xmlns="http://www.w3.org/2000/svg"><path d="M13.604.016c0 .008-.4 1.05-.89 2.32-.583 1.516-.91 2.315-.96 2.34-.165.093-.408.38-.457.547-.028.093-.044.178-.032.19.012.013.113-.04.226-.117.43-.288 1.43-.6 3.024-.94 1.704-.366 2.939-.719 3.554-1.007.514-.243.797-.592.797-.985 0-.223-.052-.247-.162-.073-.097.158-.352.377-.554.483-.122.06-.134.06-.166-.004-.02-.041-.267-.682-.555-1.424L16.911 0h-.724c-.672 0-.725.004-.705.069.077.255.834 3.35.822 3.362-.04.044-2.173.519-2.198.49-.016-.012.846-3.54.94-3.852.02-.065-.033-.069-.71-.069-.404 0-.732.008-.732.016ZM.016 3.252c.012 3.033.016 3.191.097 3.56.17.763.45 1.371.842 1.817.757.852 2.073 1.281 3.724 1.213 2.064-.09 3.299-.9 3.8-2.494.24-.763.24-.734.256-4.136L8.75.082H6.322L6.31 2.967c-.016 2.843-.016 2.896-.105 3.216-.287 1.038-.894 1.561-1.817 1.561-.567 0-.988-.166-1.32-.527-.372-.397-.558-.908-.635-1.74-.02-.235-.04-1.549-.04-2.915V.08H0l.016 3.171ZM22.064 4.886v4.805h2.886c1.672 0 3.036-.016 3.246-.04 1.441-.162 2.27-.742 2.51-1.752.069-.304.08-.953.016-1.257-.158-.762-.7-1.298-1.623-1.61l-.328-.11.259-.093c.822-.292 1.36-.851 1.554-1.605.077-.309.077-.95 0-1.257-.243-.95-.991-1.53-2.319-1.793-.308-.06-.708-.069-3.275-.08L22.064.076v4.81Zm5.472-2.676c.272.085.547.3.624.495.032.073.056.239.056.369 0 .438-.279.782-.76.928-.203.065-.41.073-1.607.073h-1.377l-.012-.985-.008-.986 1.425.013c1.238.016 1.461.028 1.66.093Zm.138 3.682c.45.146.664.418.664.827 0 .284-.073.45-.275.625-.328.28-.454.3-2.121.312l-1.49.012V5.79l1.51.016c1.263.016 1.538.028 1.712.085Z" fill="currentColor"/><path d="M19.186 2.928c-.089.219-.474.567-.826.75-.607.312-1.364.535-3.36.985-2.153.487-2.594.604-3.201.852-.563.23-.907.494-1.073.823-.077.15-.117.487-.069.54.013.011.077-.03.138-.09.498-.462 1.21-.73 3.15-1.196 3.035-.73 3.873-.961 4.427-1.22.66-.313 1.04-.864.964-1.392-.033-.215-.077-.23-.15-.052Z" fill="currentColor"/><path d="M19.655 3.771c-.089.276-.631.75-1.097.957-.635.284-1.89.637-4.395 1.229-1.927.458-2.583.69-3.222 1.14-.506.356-.818.85-.818 1.305v.207l.255-.264c.49-.507 1.101-.84 2.133-1.147.19-.057.948-.26 1.68-.45 2.866-.743 4.185-1.14 4.732-1.428.534-.28.838-.685.866-1.172.02-.271-.012-.458-.073-.458-.02 0-.044.037-.06.081ZM18.826 5.799c-.122.065-.563.23-.98.365-.42.137-.76.271-.76.296.003.142.768 3.085.809 3.11.024.016.194.04.376.057.397.032 1.555.202 2.093.308.21.04.389.069.392.065a41.77 41.77 0 0 0-.469-1.241l-.834-2.162c-.194-.506-.364-.92-.38-.916-.012 0-.126.057-.247.118Z" fill="currentColor"/><path d="M12.649 7.587c-1.11.324-1.712.632-2.206 1.127-.287.292-.316.333-.494.79-.101.269-.182.492-.178.496a4.28 4.28 0 0 0 .393-.065 28.842 28.842 0 0 1 2.092-.308c.182-.017.352-.041.377-.057.04-.025.587-2.105.558-2.13-.008-.007-.25.058-.542.147Z" fill="currentColor"/></symbol></svg>